This release includes the concert, a nfo file, the blu-ray cover and a 20 seconds sample.

General
Complete name                            : Rush - Snakes & Arrows Live (2007).mkv
Format                                   : Matroska
Format version                           : Version 2
File size                                : 9.81 GiB
Duration                                 : 2h 49mn
Overall bit rate                         : 8 299 Kbps
Writing application                      : mkvmerge v5.8.0
Writing library                          : libebml v1.2.3 + libmatroska v1.3.0

Video
ID                                       : 1
Format                                   : AVC
Format/Info                              : Advanced Video Codec
Format profile                           : High@L5.0
Format settings, CABAC                   : Yes
Format settings, ReFrames                : 5 frames
Muxing mode                              : Header stripping
Codec ID                                 : V_MPEG4/ISO/AVC
Duration                                 : 2h 49mn
Bit rate                                 : 6 625 Kbps
Width                                    : 1 920 pixels
Height                                   : 1 080 pixels
Display aspect ratio                     : 16:9
Frame rate mode                          : Constant
Frame rate                               : 29.970 fps
Color space                              : YUV
Chroma subsampling                       : 4:2:0
Bit depth                                : 8 bits
Scan type                                : Progressive
Bits/(Pixel*Frame)                       : 0.107
Stream size                              : 7.83 GiB (80%)
Writing library                          : x264 core 125 r2200 999b753
Encoding settings                        : --preset slow --crf 23
Language                                 : English
Default                                  : Yes
Forced                                   : No

Audio
ID                                       : 2
Format                                   : DTS
Format/Info                              : Digital Theater Systems
Mode                                     : 16
Format settings, Endianness              : Big
Muxing mode                              : Header stripping
Codec ID                                 : A_DTS
Duration                                 : 2h 49mn
Bit rate mode                            : Constant
Bit rate                                 : 1 509 Kbps
Channel(s)                               : 6 channels
Channel positions                        : Front: L C R, Side: L R, LFE
Sampling rate                            : 48.0 KHz
Bit depth                                : 24 bits
Compression mode                         : Lossy
Stream size                              : 1.78 GiB (18%)
Title                                    : 5.1 Surround
Language                                 : English
Default                                  : Yes
Forced                                   : No

Menu
00:00:00.000                             : en:00. Intro
00:02:41.794                             : en:01. Limelight
00:07:25.978                             : en:03. Digital Man
00:14:22.995                             : en:04. Entre Nous
00:19:57.596                             : en:05. Mission
00:25:40.038                             : en:06. Freewill
00:31:44.035                             : en:07. The Main Monkey Business
00:37:59.810                             : en:08. Intro 2
00:38:27.638                             : en:09. The Larger Bowl
00:42:53.604                             : en:10. Secret Touch
00:50:52.449                             : en:11. Circumstances
00:54:47.250                             : en:12. Between The Wheels
01:00:56.152                             : en:13. Dreamline
01:06:34.390                             : en:14. Intro 3
01:09:29.098                             : en:15. Far Cry
01:14:50.986                             : en:16. Workin Them Angels
01:19:41.676                             : en:17. Armor And Sword
01:26:21.476                             : en:18. Spindrift
01:32:13.828                             : en:19. The Way The Wind Blows
01:38:50.824                             : en:20. Subdivisions
01:46:09.129                             : en:21. Natural Science
01:54:49.449                             : en:22. Witch Hunt
01:59:37.970                             : en:23. Malignant Narcissism - De Slagwerker
02:01:58.010                             : en:24. Baterry solo
02:10:19.878                             : en:25. Hope
02:12:40.786                             : en:26. Distant Early Warning
02:17:35.647                             : en:27. The Spirit Of Radio
02:22:47.392                             : en:28. South Park Intro
02:23:38.142                             : en:29. Tom Sawyer
02:30:00.491                             : en:30. One Little Victory
02:35:29.720                             : en:31. A Passage To Bangkok
02:39:26.790                             : en:32. YYZ
02:44:53.583                             : en:32. Credits